<mxfile host="Electron" modified="2024-07-05T09:43:28.269Z" agent="Mozilla/5.0 (Windows NT 10.0; Win64; x64) AppleWebKit/537.36 (KHTML, like Gecko) draw.io/24.4.13 Chrome/124.0.6367.207 Electron/30.0.6 Safari/537.36" etag="s7y6XHYyrRFDtGoIBtdK" version="24.4.13" type="device">
  <diagram name="Page-1" id="-O7DVFHO-u8wFWGeLq6h">
    <mxGraphModel dx="819" dy="478" grid="1" gridSize="10" guides="1" tooltips="1" connect="1" arrows="1" fold="1" page="1" pageScale="1" pageWidth="850" pageHeight="1100" math="0" shadow="0">
      <root>
        <mxCell id="0" />
        <mxCell id="1" parent="0" />
        <mxCell id="GZ9s9FP61Vwwp0pGO9N9-1" value="Targeting" style="rounded=0;whiteSpace=wrap;html=1;fontFamily=&quot;Latin Modern Mono 12&quot;;" vertex="1" parent="1">
          <mxGeometry x="80" y="200" width="100" height="40" as="geometry" />
        </mxCell>
        <mxCell id="GZ9s9FP61Vwwp0pGO9N9-2" value="" style="triangle;whiteSpace=wrap;html=1;rotation=-90;" vertex="1" parent="1">
          <mxGeometry x="130" y="270" width="60" height="80" as="geometry" />
        </mxCell>
        <mxCell id="GZ9s9FP61Vwwp0pGO9N9-3" value="Attacker entered / left" style="endArrow=classic;html=1;rounded=0;fontFamily=&quot;Latin Modern Regular 12&quot;;fontSize=12;" edge="1" parent="1">
          <mxGeometry width="50" height="50" relative="1" as="geometry">
            <mxPoint x="159.8" y="280" as="sourcePoint" />
            <mxPoint x="159.8" y="240" as="targetPoint" />
          </mxGeometry>
        </mxCell>
        <mxCell id="GZ9s9FP61Vwwp0pGO9N9-5" value="Targeting-Collider" style="rounded=0;whiteSpace=wrap;html=1;fontFamily=&quot;Latin Modern Mono 12&quot;;" vertex="1" parent="1">
          <mxGeometry x="40" y="380" width="100" height="40" as="geometry" />
        </mxCell>
        <mxCell id="GZ9s9FP61Vwwp0pGO9N9-6" value="Targeting-Collider" style="rounded=0;whiteSpace=wrap;html=1;fontFamily=&quot;Latin Modern Mono 12&quot;;" vertex="1" parent="1">
          <mxGeometry x="180" y="380" width="100" height="40" as="geometry" />
        </mxCell>
        <mxCell id="GZ9s9FP61Vwwp0pGO9N9-9" value="..." style="text;html=1;align=center;verticalAlign=middle;whiteSpace=wrap;rounded=0;fontFamily=&quot;Latin Modern Mono 12&quot;;fontStyle=1" vertex="1" parent="1">
          <mxGeometry x="140" y="380" width="40" height="30" as="geometry" />
        </mxCell>
        <mxCell id="GZ9s9FP61Vwwp0pGO9N9-11" value="Attacker entered / left" style="endArrow=classic;html=1;rounded=0;fontFamily=&quot;Latin Modern Regular 12&quot;;fontSize=12;align=right;" edge="1" parent="1">
          <mxGeometry y="-20" width="50" height="50" relative="1" as="geometry">
            <mxPoint x="130" y="380" as="sourcePoint" />
            <mxPoint x="130" y="340" as="targetPoint" />
            <mxPoint as="offset" />
          </mxGeometry>
        </mxCell>
        <mxCell id="GZ9s9FP61Vwwp0pGO9N9-12" value="Attacker entered / left" style="endArrow=classic;html=1;rounded=0;fontFamily=&quot;Latin Modern Regular 12&quot;;fontSize=12;align=left;" edge="1" parent="1">
          <mxGeometry y="30" width="50" height="50" relative="1" as="geometry">
            <mxPoint x="189.6" y="380" as="sourcePoint" />
            <mxPoint x="189.6" y="340" as="targetPoint" />
            <mxPoint as="offset" />
          </mxGeometry>
        </mxCell>
        <mxCell id="GZ9s9FP61Vwwp0pGO9N9-13" value="ProjectileTower" style="rounded=0;whiteSpace=wrap;html=1;fontFamily=&quot;Latin Modern Mono 12&quot;;" vertex="1" parent="1">
          <mxGeometry x="250" y="200" width="100" height="40" as="geometry" />
        </mxCell>
        <mxCell id="GZ9s9FP61Vwwp0pGO9N9-14" value="Get target" style="endArrow=classic;html=1;rounded=0;fontSize=12;fontFamily=&quot;Latin Modern Regular 12&quot;;" edge="1" parent="1">
          <mxGeometry width="50" height="50" relative="1" as="geometry">
            <mxPoint x="250" y="220" as="sourcePoint" />
            <mxPoint x="180" y="220" as="targetPoint" />
          </mxGeometry>
        </mxCell>
        <mxCell id="GZ9s9FP61Vwwp0pGO9N9-15" value="Projectile" style="rounded=0;whiteSpace=wrap;html=1;fontFamily=&quot;Latin Modern Mono 12&quot;;" vertex="1" parent="1">
          <mxGeometry x="440" y="220" width="100" height="40" as="geometry" />
        </mxCell>
        <mxCell id="GZ9s9FP61Vwwp0pGO9N9-16" value="Instantiate" style="endArrow=classic;html=1;rounded=0;fontFamily=&quot;Latin Modern Regular 12&quot;;fontSize=12;entryX=0;entryY=0;entryDx=0;entryDy=0;" edge="1" parent="1" target="GZ9s9FP61Vwwp0pGO9N9-20">
          <mxGeometry width="50" height="50" relative="1" as="geometry">
            <mxPoint x="350" y="210" as="sourcePoint" />
            <mxPoint x="420" y="210" as="targetPoint" />
          </mxGeometry>
        </mxCell>
        <mxCell id="GZ9s9FP61Vwwp0pGO9N9-17" value="Attacker" style="rounded=0;whiteSpace=wrap;html=1;fontFamily=&quot;Latin Modern Mono 12&quot;;" vertex="1" parent="1">
          <mxGeometry x="250" y="300" width="100" height="40" as="geometry" />
        </mxCell>
        <mxCell id="GZ9s9FP61Vwwp0pGO9N9-18" value="Hit attacker" style="endArrow=classic;html=1;rounded=0;fontFamily=&quot;Latin Modern Regular 12&quot;;fontSize=12;" edge="1" parent="1">
          <mxGeometry x="0.1111" width="50" height="50" relative="1" as="geometry">
            <mxPoint x="440" y="230" as="sourcePoint" />
            <mxPoint x="350" y="230" as="targetPoint" />
            <mxPoint as="offset" />
          </mxGeometry>
        </mxCell>
        <mxCell id="GZ9s9FP61Vwwp0pGO9N9-20" value="" style="rounded=0;whiteSpace=wrap;html=1;fillColor=none;dashed=1;dashPattern=1 1;" vertex="1" parent="1">
          <mxGeometry x="430" y="210" width="120" height="60" as="geometry" />
        </mxCell>
        <mxCell id="GZ9s9FP61Vwwp0pGO9N9-21" value="DAMAGE" style="rhombus;whiteSpace=wrap;html=1;fontFamily=&quot;Latin Modern Mono 12&quot;;" vertex="1" parent="1">
          <mxGeometry x="410" y="280" width="80" height="80" as="geometry" />
        </mxCell>
        <mxCell id="GZ9s9FP61Vwwp0pGO9N9-22" value="Invoke" style="endArrow=classic;html=1;rounded=0;fontFamily=&quot;Latin Modern Regular 12&quot;;fontSize=12;" edge="1" parent="1">
          <mxGeometry width="50" height="50" relative="1" as="geometry">
            <mxPoint x="350" y="319.8" as="sourcePoint" />
            <mxPoint x="410" y="319.8" as="targetPoint" />
          </mxGeometry>
        </mxCell>
        <mxCell id="GZ9s9FP61Vwwp0pGO9N9-23" value="..." style="endArrow=classic;html=1;rounded=0;fontFamily=&quot;Latin Modern Mono 12&quot;;fontSize=12;" edge="1" parent="1">
          <mxGeometry y="10" width="50" height="50" relative="1" as="geometry">
            <mxPoint x="490" y="319.8" as="sourcePoint" />
            <mxPoint x="530" y="319.8" as="targetPoint" />
            <mxPoint as="offset" />
          </mxGeometry>
        </mxCell>
        <mxCell id="GZ9s9FP61Vwwp0pGO9N9-24" value="..." style="endArrow=classic;html=1;rounded=0;fontFamily=&quot;Latin Modern Mono 12&quot;;fontSize=12;" edge="1" parent="1">
          <mxGeometry y="10" width="50" height="50" relative="1" as="geometry">
            <mxPoint x="550" y="319.8" as="sourcePoint" />
            <mxPoint x="590" y="319.8" as="targetPoint" />
            <mxPoint as="offset" />
          </mxGeometry>
        </mxCell>
        <mxCell id="GZ9s9FP61Vwwp0pGO9N9-26" value="Damage" style="edgeStyle=orthogonalEdgeStyle;rounded=0;orthogonalLoop=1;jettySize=auto;html=1;fontFamily=&quot;Latin Modern Regular 12&quot;;fontSize=12;" edge="1" parent="1">
          <mxGeometry x="0.2902" relative="1" as="geometry">
            <mxPoint x="539.94" y="330" as="sourcePoint" />
            <mxPoint x="299.97" y="340" as="targetPoint" />
            <Array as="points">
              <mxPoint x="539.97" y="370" />
              <mxPoint x="299.97" y="370" />
            </Array>
            <mxPoint as="offset" />
          </mxGeometry>
        </mxCell>
        <mxCell id="GZ9s9FP61Vwwp0pGO9N9-25" value="" style="ellipse;whiteSpace=wrap;html=1;fillColor=#000000;strokeColor=none;" vertex="1" parent="1">
          <mxGeometry x="530" y="310" width="20" height="20" as="geometry" />
        </mxCell>
        <mxCell id="GZ9s9FP61Vwwp0pGO9N9-27" value="TryHit" style="endArrow=classic;html=1;rounded=0;fontFamily=&quot;Latin Modern Mono 12&quot;;fontSize=12;" edge="1" parent="1">
          <mxGeometry width="50" height="50" relative="1" as="geometry">
            <mxPoint x="299.71" y="240" as="sourcePoint" />
            <mxPoint x="299.71" y="300" as="targetPoint" />
          </mxGeometry>
        </mxCell>
      </root>
    </mxGraphModel>
  </diagram>
</mxfile>
